<svg id="logosandtypes_com" 
    xmlns="http://www.w3.org/2000/svg" 
    viewBox="0 0 150 150">

        <style>.st1{fill:#112d50}</style>
        <path d="M0 0h150v150H0V0z" 
            fill="none" id="Layer_3"/>
        <g id="zierbena">
            <path class="st1" d="M136.3 105.3c-14.8.9-18.4-10.3-34.5-10.2-20.1.1-21.8 14.4-44.1 14.8-1 0-2.1-.1-3.3-.3l53.2-61.5V21.5H10.4v27.6H66l-45 54c-3.8 4.2-7.5 8.3-11.3 12.5 3.4-1.8 9.3-4.2 16.5-3.9 17.4.7 15.7 18.4 34.9 18.4 24.3 0 29.8-24.3 51.8-23.9 8.6.1 8.6 4.1 22.1 3.9 6.5-.1 11.3-4.7 14.1-7.8-2.8 1.1-7.3 2.7-12.8 3z"/>
            <path class="st1" d="M97.4 119.2c2.8-1.3 7.2-3.4 12.4-3.1 11 .6 10.2 6.5 20.3 6.5 4.5 0 7.7-2.2 9.9-6.9-2 .3-5.9.8-9.5.6-9.2-.6-8.2-4.5-18.9-4.5-10.1 0-14.2 7.4-14.2 7.4z"/>
        </g>
</svg>